<svg xmlns="http://www.w3.org/2000/svg" xmlns:xlink="http://www.w3.org/1999/xlink" xmlns:inkscape="http://www.inkscape.org/namespaces/inkscape" version="1.1" width="552.00" height="263.25" viewBox="121.25 261.25 552.00 263.25" role="img" aria-label="Crown Dental Store logo">
<title>Crown Dental Store logo</title>
<defs>
<clipPath id="clip_1">
<path transform="matrix(1,0,0,-1,0,800)" d="M0 800H800V0H0Z"/>
</clipPath>
</defs>
<g inkscape:groupmode="layer" inkscape:label="Layer 1">
<g clip-path="url(#clip_1)">
<path transform="matrix(1,0,0,-1,338.3481,422.8594)" d="M0 0V-2.946C.243-2.946 .476-2.941 .692-2.931 .903-2.909 1.162-2.903 1.47-2.903 4.276-2.903 6.39-3.417 7.817-4.444 10.04-2.92 12.364-1.438 14.775 0ZM66.345-58.274C64.804-57.631 63.41-56.565 62.15-55.096L43.477-33.06C48.24-32.07 52.116-29.999 55.095-26.831 58.074-23.669 59.566-20.041 59.566-15.954 59.566-13.121 58.993-10.699 57.836-8.666 56.685-6.639 55.046-4.979 52.927-3.688 50.802-2.396 48.375-1.46 45.64-.876 45.342-.812 45.04-.752 44.731-.697 43.347-1.352 41.99-2.022 40.66-2.709 38.979-3.574 37.352-4.455 35.762-5.353 36.119-5.434 36.471-5.536 36.811-5.649 38.546-6.218 40.033-7.028 41.26-8.088 42.488-9.153 43.439-10.418 44.099-11.894 44.758-13.37 45.088-15.063 45.088-16.965 45.088-20.62 43.839-23.68 41.336-26.14 38.828-28.6 35.281-29.826 30.702-29.826H23.144V-13.521C18.419-17.03 14.165-20.798 10.326-24.853V-49.841C10.326-52.576 10.05-54.619 9.499-55.971 8.942-57.322 7.963-58.253 6.568-58.767 5.174-59.264 2.979-59.518 0-59.518V-62.519H33.654V-59.518C30.669-59.518 28.469-59.274 27.037-58.793 25.609-58.29 24.604-57.36 24.02-55.993 23.431-54.625 23.144-52.576 23.144-49.841V-34.676H29.275L52.787-62.519H72.655V-59.518C69.984-59.334 67.88-58.923 66.345-58.274" fill="#12497b"/>
<path transform="matrix(1,0,0,-1,470.5078,466.4287)" d="M0 0C-.908-3.492-2.243-6.471-3.989-8.898-5.741-11.326-7.865-13.17-10.353-14.407-12.84-15.656-15.731-16.272-19.024-16.272-22.278-16.272-25.16-15.656-27.663-14.407-30.172-13.17-32.308-11.294-34.069-8.807-35.843-6.314-37.168-3.347-38.06 .098-38.951 3.536-39.4 7.504-39.4 11.985-39.4 17.954-38.605 23.036-37.027 27.253-35.443 31.459-33.118 34.682-30.063 36.908-27.004 39.136-23.322 40.25-19.024 40.25-14.774 40.25-11.115 39.136-8.022 36.908-4.936 34.682-2.595 31.459-1.016 27.253 .568 23.036 1.357 17.954 1.357 11.985 1.357 7.504 .903 3.498 0 0M11.224 28.475C8.115 33.497 3.903 37.46-1.433 40.363-6.763 43.271-12.629 44.726-19.024 44.726-25.414 44.726-31.28 43.271-36.61 40.363-41.941 37.46-46.152 33.497-49.239 28.475-52.332 23.447-53.873 17.954-53.873 11.985-53.873 6.022-52.332 .541-49.239-4.471-46.152-9.482-41.941-13.435-36.61-16.332-31.28-19.257-25.414-20.695-19.024-20.695-12.629-20.695-6.763-19.257-1.433-16.332 3.903-13.435 8.115-9.482 11.224-4.471 14.327 .541 15.884 6.022 15.884 11.985 15.884 17.954 14.327 23.447 11.224 28.475" fill="#12497b"/>
<path transform="matrix(1,0,0,-1,567.8105,422.8594)" d="M0 0V-2.946C2.644-2.946 4.481-3.217 5.515-3.752 6.536-4.298 7.055-5.363 7.055-6.964 7.055-7.855 6.855-8.991 6.455-10.369 6.055-11.759 5.223-14.089 3.968-17.381L-6.044-44.028-19.084-14.014-20.933-9.861C-21.484-8.607-21.76-7.45-21.76-6.406-21.76-4.071-20.165-2.903-16.965-2.903-16.506-2.903-16.154-2.92-15.905-2.946V0H-44.028V-2.946C-42.186-2.946-40.688-3.195-39.536-3.688-38.385-4.18-37.33-5.125-36.379-6.525-35.428-7.92-34.395-9.926-33.286-12.537L-30.199-19.598-40.114-44.488-53.252-12.91C-54.604-9.591-55.279-7.45-55.279-6.498-55.279-5.271-54.809-4.385-53.873-3.85-52.938-3.309-51.359-3.012-49.148-2.946V0H-76.028V-2.946C-74.455-3.012-73.228-3.287-72.336-3.779-71.449-4.271-70.584-5.287-69.757-6.823-68.925-8.363-67.67-11.143-65.978-15.165L-45.369-64.265H-42.828L-27.523-25.637-11.153-64.265H-8.531L9.909-14.656C11.326-10.878 12.369-8.342 13.051-7.056 13.721-5.764 14.483-4.828 15.332-4.244 16.176-3.655 17.349-3.228 18.856-2.946V0Z" fill="#12497b"/>
<path transform="matrix(1,0,0,-1,641.7158,422.8594)" d="M0 0V-2.946H3.639C6.439-2.946 8.434-3.639 9.634-5.028 10.829-6.406 11.435-8.607 11.435-11.618V-42.645L-30.707 0H-50.716V-2.946C-48.564-3.136-46.499-3.795-44.515-4.931-42.53-6.071-40.79-7.623-39.281-9.591V-50.911C-39.281-53.977-39.92-56.177-41.195-57.512-42.472-58.848-44.466-59.518-47.169-59.518H-50.716V-62.519H-22.917V-59.518H-25.729C-28.063-59.518-29.858-59.242-31.124-58.69-32.383-58.134-33.275-57.16-33.794-55.761-34.318-54.365-34.578-52.393-34.578-49.841V-14.105L14.338-63.075H16.133V-12.629C16.133-10.294 16.381-8.412 16.873-6.985 17.365-5.553 18.165-4.525 19.269-3.898 20.382-3.266 21.928-2.946 23.929-2.946H26.875V0Z" fill="#12497b"/>
<path transform="matrix(1,0,0,-1,190.6138,370.0215)" d="M0 0C0 0 .962 17.067-45.196 42.071L-9.855 40.871C-9.855 40.871 7.936 38.708 3.368 65.156 3.368 65.156-5.525 92.322 15.867 74.049L32.216 59.382C32.216 59.382 39.909 49.526 53.614 64.913 53.614 64.913 69.724 89.436 83.667 77.898 83.667 77.898 61.788 68.481 68.519 40.493 68.519 40.493 54.641 45.353 53.614 54.576 53.614 54.576 42.314 36.541 20.436 51.451 20.436 51.451 20.436 29.81-12.023 32.454-12.023 32.454 8.174 17.067 0 0" fill="#12497b"/>
<path transform="matrix(1,0,0,-1,142.4087,322.2603)" d="M0 0C0-4.546-3.687-8.233-8.233-8.233-12.78-8.233-16.467-4.546-16.467 0-16.467 4.547-12.78 8.234-8.233 8.234-3.687 8.234 0 4.547 0 0" fill="#12497b"/>
<path transform="matrix(1,0,0,-1,196.6851,276.97804)" d="M0 0C0-4.546-3.687-8.233-8.234-8.233-12.781-8.233-16.468-4.546-16.468 0-16.468 4.547-12.781 8.234-8.234 8.234-3.687 8.234 0 4.547 0 0" fill="#12497b"/>
<path transform="matrix(1,0,0,-1,277.4673,274.09278)" d="M0 0C0-4.546-3.687-8.233-8.234-8.233-12.78-8.233-16.467-4.546-16.467 0-16.467 4.547-12.78 8.234-8.234 8.234-3.687 8.234 0 4.547 0 0" fill="#12497b"/>
<path transform="matrix(1,0,0,-1,371.9712,387.8511)" d="M0 0C18.527 40.05-27.621 60.593-51.505 44.807-75.353 29.048-86.44 28.075-91.03 31.016-91.03 31.016-84.954 20.533-62.107 26.588-39.26 32.643-8.899 32.27-17.116-.567-19.327-9.434-23.577-18.738-28.588-27.604-24.279-26.583-19.728-25.728-15.008-25.009-9.31-17.218-4.065-8.796 0 0" fill="#12497b"/>
<path transform="matrix(1,0,0,-1,459.6855,414.2324)" d="M0 0C1.06-.232 1.946-.352 2.665-.352 4.595-.352 6.201 .329 7.472 1.687 8.747 3.043 9.385 4.887 9.385 7.212 9.385 9.553 8.747 11.396 7.472 12.747 6.201 14.094 4.562 14.77 2.563 14.77 1.811 14.77 .957 14.65 0 14.413ZM-4.839-1.228V-.763H-4.201C-3.481-.763-2.974-.535-2.676-.076-2.492 .199-2.4 .816-2.4 1.772V12.721C-2.4 13.78-2.514 14.44-2.746 14.71-3.071 15.078-3.558 15.256-4.201 15.256H-4.839V15.721H2.06C4.595 15.721 6.525 15.435 7.845 14.861 9.163 14.283 10.229 13.326 11.028 11.985 11.834 10.645 12.234 9.093 12.234 7.336 12.234 4.979 11.521 3.006 10.088 1.422 8.477-.341 6.028-1.228 2.735-1.228Z" fill="#49b587"/>
<path transform="matrix(1,0,0,-1,480.8057,399.4365)" d="M0 0V-6.698H3.72C4.693-6.698 5.336-6.553 5.661-6.261 6.093-5.877 6.337-5.201 6.385-4.238H6.851V-10.137H6.385C6.271-9.31 6.152-8.779 6.034-8.547 5.883-8.255 5.639-8.028 5.299-7.86 4.958-7.693 4.434-7.612 3.72-7.612H0V-13.196C0-13.948 .033-14.402 .098-14.564 .168-14.727 .281-14.856 .449-14.954 .616-15.051 .931-15.094 1.4-15.094H4.276C5.233-15.094 5.926-15.029 6.358-14.895 6.791-14.765 7.207-14.5 7.612-14.11 8.126-13.591 8.656-12.813 9.196-11.774H9.693L8.234-16.019H-4.827V-15.56H-4.228C-3.827-15.56-3.449-15.462-3.087-15.272-2.821-15.138-2.638-14.938-2.546-14.673-2.448-14.407-2.4-13.856-2.4-13.034V-2.027C-2.4-.946-2.508-.287-2.725-.038-3.027 .297-3.524 .459-4.228 .459H-4.827V.924H8.234L8.423-2.784H7.937C7.764-1.897 7.563-1.281 7.353-.946 7.142-.616 6.828-.362 6.412-.189 6.077-.06 5.493 0 4.649 0Z" fill="#49b587"/>
<path transform="matrix(1,0,0,-1,493.3135,398.5098)" d="M0 0H4.601L14.959-12.71V-2.936C14.959-1.897 14.846-1.244 14.607-.989 14.305-.638 13.813-.465 13.147-.465H12.559V0H18.462V-.465H17.856C17.144-.465 16.635-.681 16.332-1.114 16.148-1.379 16.062-1.99 16.062-2.936V-17.225H15.607L4.438-3.573V-14.013C4.438-15.051 4.547-15.7 4.773-15.959 5.087-16.311 5.579-16.483 6.233-16.483H6.839V-16.948H.936V-16.483H1.524C2.249-16.483 2.763-16.268 3.06-15.835 3.244-15.57 3.336-14.959 3.336-14.013V-2.228C2.844-1.649 2.471-1.271 2.217-1.087 1.962-.903 1.59-.735 1.098-.573 .859-.503 .492-.465 0-.465Z" fill="#49b587"/>
<path transform="matrix(1,0,0,-1,529.5049,398.5098)" d="M0 0 .188-3.974H-.287C-.379-3.276-.503-2.773-.665-2.476-.92-1.995-1.266-1.638-1.692-1.406-2.125-1.179-2.688-1.065-3.385-1.065H-5.774V-14.013C-5.774-15.051-5.661-15.7-5.439-15.959-5.12-16.311-4.634-16.483-3.974-16.483H-3.385V-16.948H-10.575V-16.483H-9.975C-9.256-16.483-8.748-16.268-8.45-15.835-8.267-15.57-8.175-14.959-8.175-14.013V-1.065H-10.213C-11.002-1.065-11.564-1.125-11.899-1.238-12.332-1.395-12.705-1.698-13.014-2.152-13.321-2.601-13.505-3.211-13.56-3.974H-14.035L-13.835 0Z" fill="#49b587"/>
<path transform="matrix(1,0,0,-1,542.1992,408.8584)" d="M0 0-2.876 6.851-5.822 0ZM.352-.924H-6.212L-7.363-3.601C-7.645-4.26-7.785-4.752-7.785-5.076-7.785-5.33-7.66-5.558-7.417-5.757-7.174-5.952-6.645-6.082-5.822-6.136V-6.601H-11.158V-6.136C-10.455-6.012-9.996-5.849-9.785-5.649-9.358-5.249-8.894-4.438-8.374-3.211L-2.411 10.732H-1.973L3.925-3.362C4.401-4.497 4.833-5.232 5.217-5.568 5.606-5.903 6.147-6.093 6.839-6.136V-6.601H.151V-6.136C.827-6.104 1.281-5.989 1.52-5.801 1.757-5.611 1.876-5.373 1.876-5.098 1.876-4.73 1.709-4.157 1.373-3.362Z" fill="#49b587"/>
<path transform="matrix(1,0,0,-1,566.5566,410.7715)" d="M0 0 .41-.087-1.038-4.687H-14.165V-4.223H-13.521C-12.808-4.223-12.294-3.99-11.986-3.525-11.813-3.26-11.722-2.639-11.722-1.676V9.261C-11.722 10.32-11.84 10.98-12.072 11.25-12.397 11.612-12.884 11.796-13.521 11.796H-14.165V12.261H-6.488V11.796C-7.391 11.807-8.018 11.721-8.38 11.547-8.742 11.375-8.991 11.153-9.126 10.888-9.256 10.618-9.326 9.979-9.326 8.974V-1.676C-9.326-2.363-9.256-2.839-9.126-3.098-9.023-3.271-8.872-3.4-8.661-3.487-8.456-3.568-7.802-3.611-6.715-3.611H-5.477C-4.174-3.611-3.266-3.515-2.736-3.325-2.212-3.136-1.736-2.795-1.304-2.304-.871-1.816-.438-1.049 0 0" fill="#49b587"/>
<path transform="matrix(1,0,0,-1,589.8213,398.125)" d="M0 0V-5.86H-.46C-.611-4.735-.882-3.838-1.266-3.174-1.654-2.508-2.206-1.979-2.925-1.584-3.639-1.195-4.385-1-5.147-1-6.018-1-6.731-1.265-7.299-1.795-7.866-2.319-8.147-2.925-8.147-3.601-8.147-4.114-7.969-4.584-7.612-5.012-7.094-5.633-5.866-6.466-3.926-7.509-2.342-8.358-1.26-9.012-.682-9.466-.104-9.92 .34-10.456 .659-11.072 .968-11.688 1.124-12.332 1.124-13.008 1.124-14.294 .627-15.396-.368-16.327-1.362-17.257-2.645-17.722-4.212-17.722-4.704-17.722-5.169-17.684-5.602-17.608-5.855-17.57-6.391-17.413-7.207-17.154-8.018-16.889-8.531-16.76-8.748-16.76-8.959-16.76-9.121-16.818-9.239-16.943-9.364-17.073-9.456-17.332-9.51-17.722H-9.975V-11.91H-9.51C-9.294-13.126-9.002-14.034-8.634-14.64-8.267-15.245-7.71-15.748-6.958-16.143-6.201-16.549-5.374-16.748-4.477-16.748-3.434-16.748-2.611-16.473-2.006-15.921-1.4-15.37-1.098-14.721-1.098-13.97-1.098-13.554-1.217-13.132-1.444-12.71-1.677-12.283-2.027-11.889-2.509-11.521-2.839-11.271-3.726-10.742-5.174-9.926-6.623-9.115-7.655-8.466-8.267-7.985-8.883-7.504-9.348-6.969-9.661-6.385-9.98-5.801-10.137-5.163-10.137-4.46-10.137-3.244-9.672-2.195-8.737-1.319-7.802-.438-6.617 0-5.174 0-4.276 0-3.32-.222-2.314-.66-1.844-.87-1.514-.973-1.325-.973-1.108-.973-.931-.908-.79-.778-.654-.654-.547-.389-.46 0Z" fill="#49b587"/>
<path transform="matrix(1,0,0,-1,609.6904,398.5098)" d="M0 0 .189-3.974H-.286C-.378-3.276-.503-2.773-.665-2.476-.919-1.995-1.265-1.638-1.692-1.406-2.125-1.179-2.687-1.065-3.384-1.065H-5.773V-14.013C-5.773-15.051-5.66-15.7-5.434-15.959-5.12-16.311-4.633-16.483-3.974-16.483H-3.384V-16.948H-10.574V-16.483H-9.975C-9.256-16.483-8.747-16.268-8.444-15.835-8.267-15.57-8.174-14.959-8.174-14.013V-1.065H-10.212C-11.002-1.065-11.563-1.125-11.899-1.238-12.332-1.395-12.705-1.698-13.013-2.152-13.315-2.601-13.505-3.211-13.559-3.974H-14.034L-13.835 0Z" fill="#49b587"/>
<path transform="matrix(1,0,0,-1,621.7354,399.0352)" d="M0 0C-1.519 0-2.729-.562-3.649-1.687-4.79-3.087-5.362-5.136-5.362-7.839-5.362-10.602-4.768-12.731-3.59-14.224-2.682-15.354-1.476-15.922 .011-15.922 1.605-15.922 2.92-15.306 3.958-14.062 4.996-12.818 5.515-10.861 5.515-8.186 5.515-5.287 4.941-3.125 3.801-1.698 2.882-.568 1.617 0 0 0M.238 .908C2.438 .908 4.342 .076 5.958-1.595 7.569-3.266 8.375-5.353 8.375-7.85 8.375-10.424 7.559-12.559 5.937-14.262 4.309-15.959 2.347-16.809 .038-16.809-2.292-16.809-4.255-15.981-5.844-14.321-7.434-12.667-8.223-10.521-8.223-7.888-8.223-5.195-7.309-3.001-5.477-1.303-3.882 .173-1.979 .908 .238 .908" fill="#49b587"/>
<path transform="matrix(1,0,0,-1,638.918,406.7461)" d="M0 0C.156 0 .297 0 .411-.006 .529-.011 .627-.011 .697-.011 2.313-.011 3.535 .335 4.357 1.038 5.179 1.735 5.585 2.627 5.585 3.714 5.585 4.769 5.255 5.633 4.595 6.292 3.93 6.952 3.055 7.288 1.962 7.288 1.476 7.288 .821 7.207 0 7.049ZM12.034-8.71H7.509L1.773-.789C1.352-.806 1.006-.812 .735-.812 .627-.812 .514-.812 .389-.806L0-.789V-5.715C0-6.779 .113-7.439 .352-7.698 .67-8.066 1.141-8.25 1.773-8.25H2.438V-8.71H-4.822V-8.25H-4.185C-3.471-8.25-2.957-8.018-2.649-7.547-2.477-7.293-2.385-6.677-2.385-5.715V5.233C-2.385 6.304-2.503 6.963-2.735 7.223-3.061 7.59-3.547 7.769-4.185 7.769H-4.822V8.233H1.352C3.151 8.233 4.477 8.104 5.33 7.844 6.185 7.58 6.909 7.093 7.504 6.39 8.104 5.687 8.401 4.85 8.401 3.871 8.401 2.833 8.061 1.925 7.379 1.162 6.698 .395 5.649-.146 4.222-.465L7.726-5.325C8.525-6.439 9.212-7.186 9.785-7.547 10.363-7.915 11.109-8.147 12.034-8.25Z" fill="#49b587"/>
<path transform="matrix(1,0,0,-1,658.6367,399.4365)" d="M0 0V-6.698H3.726C4.693-6.698 5.336-6.553 5.661-6.261 6.093-5.877 6.337-5.201 6.385-4.238H6.85V-10.137H6.385C6.271-9.31 6.152-8.779 6.039-8.547 5.888-8.255 5.639-8.028 5.299-7.86 4.958-7.693 4.434-7.612 3.726-7.612H0V-13.196C0-13.948 .033-14.402 .104-14.564 .168-14.727 .281-14.856 .449-14.954 .616-15.051 .931-15.094 1.4-15.094H4.276C5.233-15.094 5.931-15.029 6.363-14.895 6.796-14.765 7.212-14.5 7.612-14.11 8.126-13.591 8.656-12.813 9.202-11.774H9.699L8.234-16.019H-4.822V-15.56H-4.222C-3.827-15.56-3.443-15.462-3.087-15.272-2.816-15.138-2.638-14.938-2.541-14.673-2.448-14.407-2.4-13.856-2.4-13.034V-2.027C-2.4-.946-2.508-.287-2.725-.038-3.027 .297-3.524 .459-4.222 .459H-4.822V.924H8.234L8.423-2.784H7.937C7.764-1.897 7.569-1.281 7.353-.946 7.142-.616 6.828-.362 6.412-.189 6.082-.06 5.493 0 4.649 0Z" fill="#49b587"/>
<path transform="matrix(1,0,0,-1,436.917,402.1611)" d="M0 0C-25.712-5.119-45.04-11.979-59.863-19.613-60.561-19.976-61.248-20.332-61.918-20.7-64.924-22.301-67.729-23.938-70.362-25.593H-70.368C-72.13-26.706-73.812-27.831-75.428-28.966-80.353-32.426-84.586-35.962-88.246-39.498-89.949-41.136-91.522-42.773-92.993-44.406-106-58.857-110.65-72.708-116.602-80.796-118.505-83.386-122.657-82.282-122.917-79.082-124.214-63.372-117.721-37.108-127.306-32.756-138.454-27.69-145.882-105.697-193.16-116.84-238.713-127.587-235.367-50.315-235.031 3.714-234.696 57.75-204.259 81.402-179.195 65.4-160.512 53.468-170.87 22.625-131.021 26.004-157.7 17.565-169.07 24.653-179.877 42.888-190.684 61.124-216.92 47.348-215.671-28.475-214.547-96.917-193.16-102.545-178.077-85.883-162.993-69.227-147.812-22.073-131.923-17.224-120.024-13.586-112.866-31.188-115.153-56.252-109.633-46.353-100.464-36.983-88.571-28.82-85.786-26.912-82.862-25.068-79.796-23.295-78.261-22.408-76.693-21.544-75.087-20.7-72.357-19.262-69.53-17.895-66.632-16.569-47.532-7.876-24.674-1.832 0 0" fill="#49b587"/>
</g>
</g>
</svg>