<?xml version="1.0" encoding="UTF-8"?>
<svg xmlns="http://www.w3.org/2000/svg" width="512" height="512" viewBox="0 0 512 512" role="img" aria-label="WhatsApp-style chat icon">
  <title>WhatsApp-style Chat Icon</title>
  <defs>
    <linearGradient id="g" x1="256" y1="24" x2="256" y2="488" gradientUnits="userSpaceOnUse">
      <stop offset="0" stop-color="#35E57D"/>
      <stop offset="1" stop-color="#14B957"/>
    </linearGradient>
  </defs>
  <circle cx="256" cy="256" r="232" fill="url(#g)"/>
  <path fill="#fff" d="M256 104c-83.9 0-152 63.8-152 142.5 0 27.1 8.2 53.4 23.6 76.1L106 408l89.1-20.7c18.8 9.5 39.8 14.5 60.9 14.5 83.9 0 152-63.8 152-142.5S339.9 104 256 104zm0 268.4c-18.2 0-36.2-4.7-52.1-13.7l-8.5-4.8-52.9 12.3 12.7-49.7-5.6-8.3c-13.8-20.4-21.1-44.1-21.1-68.7 0-63.2 57.2-114.6 127.5-114.6S383.5 176.3 383.5 239.5 326.3 372.4 256 372.4z"/>
  <path fill="#fff" d="M329.6 286.2c-4-2-23.7-11.7-27.4-13-3.7-1.4-6.4-2-9.1 2-2.7 4-10.4 13-12.8 15.7-2.4 2.7-4.7 3-8.7 1-23.8-11.9-39.4-21.3-55.2-48.2-4.2-7.2 4.2-6.7 12-22.2 1.3-2.7.7-5-0.3-7-1-2-9.1-22-12.5-30.2-3.3-7.9-6.6-6.8-9.1-6.9-2.4-0.1-5-0.1-7.7-0.1s-7 1-10.7 5c-3.7 4-14.1 13.8-14.1 33.7s14.5 39.1 16.5 41.8c2 2.7 28.5 43.5 69 61 9.6 4.1 17.1 6.6 22.9 8.4 9.6 3 18.4 2.6 25.4 1.6 7.8-1.2 23.7-9.7 27.1-19.1 3.3-9.4 3.3-17.4 2.3-19.1-1-1.7-3.7-2.7-7.6-4.4z"/>
</svg>
